<svg xmlns="http://www.w3.org/2000/svg" xmlns:xlink="http://www.w3.org/1999/xlink" width="43.56" height="43.56" viewBox="0 0 43.56 43.56">
  <defs>
    <style>
      .cls-1 {
        fill-rule: evenodd;
        filter: url(#filter);
      }
    </style>
    <filter id="filter" x="1089.38" y="1108.06" width="43.56" height="43.56" filterUnits="userSpaceOnUse">
      <feFlood result="flood" flood-color="#555"/>
      <feComposite result="composite" operator="in" in2="SourceGraphic"/>
      <feBlend result="blend" in2="SourceGraphic"/>
    </filter>
  </defs>
  <path id="icon" class="cls-1" d="M1132.93,1129.85a4.327,4.327,0,0,0-2.61-3.86,4.623,4.623,0,0,1-2.88-6.97,4.161,4.161,0,0,0-5.46-5.46,6.019,6.019,0,0,1-4.23.35,5.937,5.937,0,0,1-2.74-3.24,4.173,4.173,0,0,0-7.73,0,4.634,4.634,0,0,1-6.97,2.89,4.161,4.161,0,0,0-5.46,5.46,4.636,4.636,0,0,1-2.88,6.97,4.159,4.159,0,0,0,0,7.72,4.623,4.623,0,0,1,2.88,6.97,4.161,4.161,0,0,0,5.46,5.46,4.634,4.634,0,0,1,6.97,2.89,4.173,4.173,0,0,0,7.73,0,4.628,4.628,0,0,1,6.97-2.89,4.161,4.161,0,0,0,5.46-5.46,4.623,4.623,0,0,1,2.88-6.97A4.327,4.327,0,0,0,1132.93,1129.85Zm-21.79,7.99a7.985,7.985,0,1,1,7.99-7.98A7.979,7.979,0,0,1,1111.14,1137.84Z" transform="translate(-1089.38 -1108.06)"/>
</svg>
