<svg xmlns="http://www.w3.org/2000/svg" xmlns:xlink="http://www.w3.org/1999/xlink" width="24" height="24" viewBox="0 0 24 24">
  <defs>
    <style>
      .cls-1 {
        fill-rule: evenodd;
        filter: url(#filter);
      }
    </style>
    <filter id="filter" x="1522" y="55" width="24" height="24" filterUnits="userSpaceOnUse">
      <feFlood result="flood" flood-color="#fff"/>
      <feComposite result="composite" operator="in" in2="SourceGraphic"/>
      <feBlend result="blend" in2="SourceGraphic"/>
    </filter>
  </defs>
  <path id="icon-search" class="cls-1" d="M1545.76,77.682l-6.19-6.095a9.807,9.807,0,0,0,2.62-6.658,10.1,10.1,0,1,0-10.1,9.934,10.183,10.183,0,0,0,6.36-2.218l6.21,6.12a0.788,0.788,0,0,0,1.1,0A0.763,0.763,0,0,0,1545.76,77.682Zm-13.67-4.348a8.406,8.406,0,1,1,8.54-8.405A8.477,8.477,0,0,1,1532.09,73.334Z" transform="translate(-1522 -55)"/>
</svg>
