<svg xmlns="http://www.w3.org/2000/svg" xmlns:xlink="http://www.w3.org/1999/xlink" width="50.87" height="35.63" viewBox="0 0 50.87 35.63">
  <defs>
    <style>
      .cls-1 {
        fill-rule: evenodd;
        filter: url(#filter);
      }
    </style>
    <filter id="filter" x="1388.75" y="1116.34" width="50.87" height="35.63" filterUnits="userSpaceOnUse">
      <feFlood result="flood" flood-color="#555"/>
      <feComposite result="composite" operator="in" in2="SourceGraphic"/>
      <feBlend result="blend" in2="SourceGraphic"/>
    </filter>
  </defs>
  <path id="icon" class="cls-1" d="M1397,1129.25a6.787,6.787,0,0,1,5.74-3.61h26.21v-1.66a2.482,2.482,0,0,0-2.46-2.48h-10.82v-1.44a3.707,3.707,0,0,0-3.68-3.73h-6.29a3.722,3.722,0,0,0-3.69,3.73v1.44H1391.2a2.475,2.475,0,0,0-2.46,2.48v22.17Zm7.47-9.19a1.266,1.266,0,0,1,.36-0.88,1.185,1.185,0,0,1,.87-0.36h6.29a1.231,1.231,0,0,1,1.23,1.24v1.44h-8.75v-1.44Zm25.45,29.7a4.319,4.319,0,0,1-3.54,2.22h-35.3a1.417,1.417,0,0,1-1.37-2.22l9.49-19.42a4.333,4.333,0,0,1,3.54-2.22h35.3a1.417,1.417,0,0,1,1.37,2.22Z" transform="translate(-1388.75 -1116.34)"/>
</svg>
