<svg xmlns="http://www.w3.org/2000/svg" xmlns:xlink="http://www.w3.org/1999/xlink" width="24.624" height="24.62" viewBox="0 0 24.624 24.62">
  <defs>
    <style>
      .cls-1 {
        fill-rule: evenodd;
        filter: url(#filter);
      }
    </style>
    <filter id="filter" x="920.688" y="2641.72" width="24.624" height="24.62" filterUnits="userSpaceOnUse">
      <feFlood result="flood" flood-color="#c7b299"/>
      <feComposite result="composite" operator="in" in2="SourceGraphic"/>
      <feBlend result="blend" in2="SourceGraphic"/>
    </filter>
  </defs>
  <path id="link" class="cls-1" d="M943.5,2643.49a6.208,6.208,0,0,0-8.743,0l-4.721,4.73a7.1,7.1,0,0,1,4.908.37l2.454-2.45a2.447,2.447,0,0,1,3.46,3.46l-3.085,3.09-2.028,2.02a2.438,2.438,0,0,1-3.46,0l-2.641,2.65a6.064,6.064,0,0,0,2.079,1.36,6.237,6.237,0,0,0,6.153-.9,4.686,4.686,0,0,0,.511-0.46l3.187-3.19,1.926-1.93A6.18,6.18,0,0,0,943.5,2643.49Zm-12.561,16.03-2.352,2.36a2.447,2.447,0,0,1-3.46-3.46l5.113-5.12a2.457,2.457,0,0,1,3.46,0l2.642-2.64a5.97,5.97,0,0,0-2.079-1.37,6.206,6.206,0,0,0-6.426,1.14,3.111,3.111,0,0,0-.239.23l-5.113,5.11a6.185,6.185,0,0,0,8.744,8.75l4.618-4.67C933.5,2660.39,932.949,2660.33,930.938,2659.52Z" transform="translate(-920.688 -2641.72)"/>
</svg>
