<svg xmlns="http://www.w3.org/2000/svg" xmlns:xlink="http://www.w3.org/1999/xlink" width="25.157" height="24.47" viewBox="0 0 25.157 24.47">
  <defs>
    <style>
      .cls-1 {
        fill-rule: evenodd;
        filter: url(#filter);
      }
    </style>
    <filter id="filter" x="974.781" y="2641.19" width="25.157" height="24.47" filterUnits="userSpaceOnUse">
      <feFlood result="flood" flood-color="#fff"/>
      <feComposite result="composite" operator="in" in2="SourceGraphic"/>
      <feBlend result="blend" in2="SourceGraphic"/>
    </filter>
  </defs>
  <path id="lupa" class="cls-1" d="M985.3,2645.08a1.3,1.3,0,1,0,0,2.59,4.156,4.156,0,0,1,3.748,2.31,1.327,1.327,0,0,0,1.758.6,1.284,1.284,0,0,0,.607-1.73A6.756,6.756,0,0,0,985.3,2645.08Zm14.152,17.8-4.383-4.32a10.838,10.838,0,0,0,2.068-6.36,11.158,11.158,0,1,0-4.346,8.7l4.335,4.27a1.649,1.649,0,0,0,2.326,0A1.6,1.6,0,0,0,999.456,2662.88Zm-22.047-10.68a8.552,8.552,0,0,1,17.1,0,8.4,8.4,0,0,1-3.029,6.42A8.561,8.561,0,0,1,977.409,2652.2Z" transform="translate(-974.781 -2641.19)"/>
</svg>
